<?xml version="1.0" encoding="UTF-8" standalone="no"?>
<!DOCTYPE svg PUBLIC "-//W3C//DTD SVG 1.1//EN"
 "http://www.w3.org/Graphics/SVG/1.1/DTD/svg11.dtd">
<!-- Generated by graphviz version 2.43.0 (0)
 -->
<!-- Title: %3 Pages: 1 -->
<svg width="835pt" height="332pt"
 viewBox="0.00 0.00 834.93 332.00" xmlns="http://www.w3.org/2000/svg" xmlns:xlink="http://www.w3.org/1999/xlink">
<g id="graph0" class="graph" transform="scale(1 1) rotate(0) translate(4 328)">
<title>%3</title>
<polygon fill="white" stroke="transparent" points="-4,4 -4,-328 830.93,-328 830.93,4 -4,4"/>
<!-- [root] aws_instance.web -->
<g id="node1" class="node">
<title>[root] aws_instance.web</title>
<polygon fill="none" stroke="black" points="622.43,-180 477.43,-180 477.43,-144 622.43,-144 622.43,-180"/>
<text text-anchor="middle" x="549.93" y="-158.3" font-family="Times,serif" font-size="14.00">aws_instance.web</text>
</g>
<!-- [root] aws_security_group.allow_http -->
<g id="node3" class="node">
<title>[root] aws_security_group.allow_http</title>
<polygon fill="none" stroke="black" points="826.93,-108 590.93,-108 590.93,-72 826.93,-72 826.93,-108"/>
<text text-anchor="middle" x="708.93" y="-86.3" font-family="Times,serif" font-size="14.00">aws_security_group.allow_http</text>
</g>
<!-- [root] aws_instance.web&#45;&gt;[root] aws_security_group.allow_http -->
<g id="edge1" class="edge">
<title>[root] aws_instance.web&#45;&gt;[root] aws_security_group.allow_http</title>
<path fill="none" stroke="black" d="M588.83,-143.88C610.56,-134.31 637.83,-122.3 660.89,-112.15"/>
<polygon fill="black" stroke="black" points="662.42,-115.3 670.16,-108.07 659.6,-108.89 662.42,-115.3"/>
</g>
<!-- [root] aws_security_group.allow_ssh -->
<g id="node4" class="node">
<title>[root] aws_security_group.allow_ssh</title>
<polygon fill="none" stroke="black" points="572.93,-108 342.93,-108 342.93,-72 572.93,-72 572.93,-108"/>
<text text-anchor="middle" x="457.93" y="-86.3" font-family="Times,serif" font-size="14.00">aws_security_group.allow_ssh</text>
</g>
<!-- [root] aws_instance.web&#45;&gt;[root] aws_security_group.allow_ssh -->
<g id="edge2" class="edge">
<title>[root] aws_instance.web&#45;&gt;[root] aws_security_group.allow_ssh</title>
<path fill="none" stroke="black" d="M527.19,-143.7C515.49,-134.8 501.07,-123.82 488.42,-114.2"/>
<polygon fill="black" stroke="black" points="490.49,-111.37 480.41,-108.1 486.25,-116.94 490.49,-111.37"/>
</g>
<!-- [root] aws_s3_bucket.mybucket -->
<g id="node2" class="node">
<title>[root] aws_s3_bucket.mybucket</title>
<polygon fill="none" stroke="black" points="413.43,-180 216.43,-180 216.43,-144 413.43,-144 413.43,-180"/>
<text text-anchor="middle" x="314.93" y="-158.3" font-family="Times,serif" font-size="14.00">aws_s3_bucket.mybucket</text>
</g>
<!-- [root] provider.aws -->
<g id="node5" class="node">
<title>[root] provider.aws</title>
<polygon fill="none" stroke="black" points="457.93,-36 358.89,-18 457.93,0 556.97,-18 457.93,-36"/>
<text text-anchor="middle" x="457.93" y="-14.3" font-family="Times,serif" font-size="14.00">provider.aws</text>
</g>
<!-- [root] aws_s3_bucket.mybucket&#45;&gt;[root] provider.aws -->
<g id="edge3" class="edge">
<title>[root] aws_s3_bucket.mybucket&#45;&gt;[root] provider.aws</title>
<path fill="none" stroke="black" d="M314.14,-143.95C314.15,-124.42 317.06,-92.49 333.93,-72 350.99,-51.27 377.66,-38.47 401.9,-30.67"/>
<polygon fill="black" stroke="black" points="403.17,-33.94 411.74,-27.72 401.16,-27.23 403.17,-33.94"/>
</g>
<!-- [root] aws_security_group.allow_http&#45;&gt;[root] provider.aws -->
<g id="edge4" class="edge">
<title>[root] aws_security_group.allow_http&#45;&gt;[root] provider.aws</title>
<path fill="none" stroke="black" d="M647.85,-71.97C603.84,-59.69 545.32,-43.37 504.93,-32.11"/>
<polygon fill="black" stroke="black" points="505.65,-28.67 495.08,-29.36 503.77,-35.42 505.65,-28.67"/>
</g>
<!-- [root] aws_security_group.allow_ssh&#45;&gt;[root] provider.aws -->
<g id="edge5" class="edge">
<title>[root] aws_security_group.allow_ssh&#45;&gt;[root] provider.aws</title>
<path fill="none" stroke="black" d="M457.93,-71.7C457.93,-63.98 457.93,-54.71 457.93,-46.11"/>
<polygon fill="black" stroke="black" points="461.43,-46.1 457.93,-36.1 454.43,-46.1 461.43,-46.1"/>
</g>
<!-- [root] meta.count&#45;boundary (EachMode fixup) -->
<g id="node6" class="node">
<title>[root] meta.count&#45;boundary (EachMode fixup)</title>
<ellipse fill="none" stroke="black" cx="222.93" cy="-234" rx="222.86" ry="18"/>
<text text-anchor="middle" x="222.93" y="-230.3" font-family="Times,serif" font-size="14.00">[root] meta.count&#45;boundary (EachMode fixup)</text>
</g>
<!-- [root] meta.count&#45;boundary (EachMode fixup)&#45;&gt;[root] aws_instance.web -->
<g id="edge6" class="edge">
<title>[root] meta.count&#45;boundary (EachMode fixup)&#45;&gt;[root] aws_instance.web</title>
<path fill="none" stroke="black" d="M297.54,-217.03C348.19,-206.19 415.18,-191.85 467.42,-180.66"/>
<polygon fill="black" stroke="black" points="468.28,-184.06 477.33,-178.54 466.82,-177.21 468.28,-184.06"/>
</g>
<!-- [root] meta.count&#45;boundary (EachMode fixup)&#45;&gt;[root] aws_s3_bucket.mybucket -->
<g id="edge7" class="edge">
<title>[root] meta.count&#45;boundary (EachMode fixup)&#45;&gt;[root] aws_s3_bucket.mybucket</title>
<path fill="none" stroke="black" d="M245.2,-216.05C256.98,-207.09 271.62,-195.96 284.43,-186.2"/>
<polygon fill="black" stroke="black" points="286.71,-188.87 292.55,-180.03 282.47,-183.3 286.71,-188.87"/>
</g>
<!-- [root] provider.aws (close) -->
<g id="node7" class="node">
<title>[root] provider.aws (close)</title>
<ellipse fill="none" stroke="black" cx="595.93" cy="-234" rx="131.88" ry="18"/>
<text text-anchor="middle" x="595.93" y="-230.3" font-family="Times,serif" font-size="14.00">[root] provider.aws (close)</text>
</g>
<!-- [root] provider.aws (close)&#45;&gt;[root] aws_instance.web -->
<g id="edge8" class="edge">
<title>[root] provider.aws (close)&#45;&gt;[root] aws_instance.web</title>
<path fill="none" stroke="black" d="M584.79,-216.05C579.39,-207.84 572.79,-197.79 566.79,-188.66"/>
<polygon fill="black" stroke="black" points="569.7,-186.71 561.28,-180.28 563.85,-190.55 569.7,-186.71"/>
</g>
<!-- [root] provider.aws (close)&#45;&gt;[root] aws_s3_bucket.mybucket -->
<g id="edge9" class="edge">
<title>[root] provider.aws (close)&#45;&gt;[root] aws_s3_bucket.mybucket</title>
<path fill="none" stroke="black" d="M535.65,-217.98C493.96,-207.6 438.09,-193.68 393,-182.45"/>
<polygon fill="black" stroke="black" points="393.81,-179.04 383.26,-180.02 392.11,-185.83 393.81,-179.04"/>
</g>
<!-- [root] root -->
<g id="node8" class="node">
<title>[root] root</title>
<ellipse fill="none" stroke="black" cx="408.93" cy="-306" rx="58.49" ry="18"/>
<text text-anchor="middle" x="408.93" y="-302.3" font-family="Times,serif" font-size="14.00">[root] root</text>
</g>
<!-- [root] root&#45;&gt;[root] meta.count&#45;boundary (EachMode fixup) -->
<g id="edge10" class="edge">
<title>[root] root&#45;&gt;[root] meta.count&#45;boundary (EachMode fixup)</title>
<path fill="none" stroke="black" d="M373.51,-291.67C346.19,-281.39 307.94,-266.99 276.83,-255.29"/>
<polygon fill="black" stroke="black" points="278.02,-251.99 267.42,-251.75 275.55,-258.54 278.02,-251.99"/>
</g>
<!-- [root] root&#45;&gt;[root] provider.aws (close) -->
<g id="edge11" class="edge">
<title>[root] root&#45;&gt;[root] provider.aws (close)</title>
<path fill="none" stroke="black" d="M444.54,-291.67C472.49,-281.21 511.81,-266.49 543.37,-254.67"/>
<polygon fill="black" stroke="black" points="544.76,-257.89 552.9,-251.11 542.31,-251.34 544.76,-257.89"/>
</g>
</g>
</svg>
